<svg class="animated" id="freepik_stories-create" xmlns="http://www.w3.org/2000/svg" viewBox="0 0 500 500" version="1.1" xmlns:xlink="http://www.w3.org/1999/xlink" xmlns:svgjs="http://svgjs.com/svgjs"><style>svg#freepik_stories-create:not(.animated) .animable {opacity: 0;}svg#freepik_stories-create.animated #freepik--background-simple--inject-3 {animation: 1.3s 1 forwards ease-out slideUp;animation-delay: 0s;}svg#freepik_stories-create.animated #freepik--Bulb--inject-3 {animation: 1s 1 forwards cubic-bezier(.36,-0.01,.5,1.38) slideDown;animation-delay: 0s;}svg#freepik_stories-create.animated #freepik--Trucks--inject-3 {animation: 1s 1 forwards cubic-bezier(.36,-0.01,.5,1.38) slideLeft;animation-delay: 0s;}            @keyframes slideUp {                0% {                    opacity: 0;                    transform: translateY(30px);                }                100% {                    opacity: 1;                    transform: inherit;                }            }                    @keyframes slideDown {                0% {                    opacity: 0;                    transform: translateY(-30px);                }                100% {                    opacity: 1;                    transform: translateY(0);                }            }                    @keyframes slideLeft {                0% {                    opacity: 0;                    transform: translateX(-30px);                }                100% {                    opacity: 1;                    transform: translateX(0);                }            }        </style><g id="freepik--background-simple--inject-3" class="animable animator-active" style="transform-origin: 247.782px 262.883px;"><path d="M436.94,419.9H65S53.19,400,45,360s30.84-25.4,40.82-59.88-33.56-27.21-29.93-74.39,63.5-48.08,92.53-41.73,25.4-15.42,59-51.71,84.37-32.66,109.77-4.53,17.23,57.15,49,57.15S427,191.29,446,252.07s-15.77,88.56-15.14,116A300.58,300.58,0,0,0,436.94,419.9Z" style="fill: rgb(76, 180, 248); transform-origin: 247.782px 262.883px;" id="el61bzhoop86r" class="animable"></path><g id="ell9fln2bj2a"><path d="M436.94,419.9H65S53.19,400,45,360s30.84-25.4,40.82-59.88-33.56-27.21-29.93-74.39,63.5-48.08,92.53-41.73,25.4-15.42,59-51.71,84.37-32.66,109.77-4.53,17.23,57.15,49,57.15S427,191.29,446,252.07s-15.77,88.56-15.14,116A300.58,300.58,0,0,0,436.94,419.9Z" style="fill: rgb(255, 255, 255); opacity: 0.7; transform-origin: 247.782px 262.883px;" class="animable"></path></g></g><g id="freepik--Bulb--inject-3" class="animable" style="transform-origin: 223.62px 236.92px;"><path d="M215.41,419.9c-9.11-13.87-48-72.19-59.38-73.75-11.09-1.52-50.5,57.45-61.16,73.75Z" style="fill: rgb(46, 53, 58); stroke: rgb(46, 53, 58); stroke-linecap: round; stroke-linejoin: round; transform-origin: 155.14px 383.011px;" id="el8drreufg33r" class="animable"></path><line x1="265.28" y1="79.13" x2="265.28" y2="213.62" style="fill: none; stroke: rgb(46, 53, 58); stroke-linecap: round; stroke-linejoin: round; stroke-width: 3px; transform-origin: 265.28px 146.375px;" id="elcrzcym9j36t" class="animable"></line><line x1="281.26" y1="82.74" x2="281.26" y2="213.62" style="fill: none; stroke: rgb(46, 53, 58); stroke-linecap: round; stroke-linejoin: round; stroke-width: 3px; transform-origin: 281.26px 148.18px;" id="el0rt7bwmzp6g" class="animable"></line><line x1="298.78" y1="154.36" x2="298.78" y2="281.13" style="fill: none; stroke: rgb(46, 53, 58); stroke-linecap: round; stroke-linejoin: round; stroke-width: 3px; transform-origin: 298.78px 217.745px;" id="elxbe2x9pk3i" class="animable"></line><line x1="317.33" y1="82.74" x2="317.33" y2="281.13" style="fill: none; stroke: rgb(46, 53, 58); stroke-linecap: round; stroke-linejoin: round; stroke-width: 3px; transform-origin: 317.33px 181.935px;" id="el591t3loidr2" class="animable"></line><line x1="335.88" y1="82.74" x2="335.88" y2="217.23" style="fill: none; stroke: rgb(46, 53, 58); stroke-linecap: round; stroke-linejoin: round; stroke-width: 3px; transform-origin: 335.88px 149.985px;" id="ell60hbwxyz5" class="animable"></line><line x1="251.37" y1="97.16" x2="336.4" y2="97.16" style="fill: none; stroke: rgb(46, 53, 58); stroke-linecap: round; stroke-linejoin: round; stroke-width: 3px; transform-origin: 293.885px 97.16px;" id="el4rero3f16eg" class="animable"></line><line x1="251.37" y1="127.05" x2="343.58" y2="127.05" style="fill: none; stroke: rgb(46, 53, 58); stroke-linecap: round; stroke-linejoin: round; stroke-width: 3px; transform-origin: 297.475px 127.05px;" id="el3u2fjv18ag1" class="animable"></line><line x1="249.83" y1="154.36" x2="352.37" y2="154.36" style="fill: none; stroke: rgb(46, 53, 58); stroke-linecap: round; stroke-linejoin: round; stroke-width: 3px; transform-origin: 301.1px 154.36px;" id="elvaoq36dpv7b" class="animable"></line><line x1="248.28" y1="184.77" x2="352.37" y2="184.77" style="fill: none; stroke: rgb(46, 53, 58); stroke-linecap: round; stroke-linejoin: round; stroke-width: 3px; transform-origin: 300.325px 184.77px;" id="ellrisrr3m73p" class="animable"></line><line x1="267.86" y1="217.74" x2="346.7" y2="217.74" style="fill: none; stroke: rgb(46, 53, 58); stroke-linecap: round; stroke-linejoin: round; stroke-width: 3px; transform-origin: 307.28px 217.74px;" id="elgiy6ajzdszv" class="animable"></line><line x1="288.47" y1="249.69" x2="340" y2="249.69" style="fill: none; stroke: rgb(46, 53, 58); stroke-linecap: round; stroke-linejoin: round; stroke-width: 3px; transform-origin: 314.235px 249.69px;" id="eltpv63lu6ngc" class="animable"></line><line x1="152.81" y1="91.9" x2="171" y2="106.14" style="fill: none; stroke: rgb(46, 53, 58); stroke-linecap: round; stroke-linejoin: round; stroke-width: 2px; transform-origin: 161.905px 99.02px;" id="el2tg386ybmts" class="animable"></line><line x1="189.19" y1="76.88" x2="195.52" y2="86.37" style="fill: none; stroke: rgb(46, 53, 58); stroke-linecap: round; stroke-linejoin: round; stroke-width: 2px; transform-origin: 192.355px 81.625px;" id="elkc2ey9kl1zr" class="animable"></line><line x1="221.62" y1="53.94" x2="227.16" y2="71.34" style="fill: none; stroke: rgb(46, 53, 58); stroke-linecap: round; stroke-linejoin: round; stroke-width: 2px; transform-origin: 224.39px 62.64px;" id="el5v6ff5kxd0x" class="animable"></line><path d="M325.4,277.54h-30V206.21H254.7V79.88a100,100,0,0,0-87.42,146.73c3.26,7.59,10.92,26.18,18.59,50.22,7.09,22.19,10.79,44.5,10.79,47.87,0,.33,0,.67,0,1a7.48,7.48,0,0,0,7.47,7.74H307.38a7.49,7.49,0,0,0,7.47-7.74c0-.36,0-.7,0-1C314.83,321.37,318.46,299.49,325.4,277.54Z" style="fill: rgb(76, 180, 248); stroke: rgb(46, 53, 58); stroke-linecap: round; stroke-linejoin: round; stroke-width: 2px; transform-origin: 240.544px 206.66px;" id="elwfpfy0dnu9a" class="animable"></path><path d="M220.81,96a80.31,80.31,0,0,1,8.89-3.39" style="fill: none; stroke: rgb(46, 53, 58); stroke-linecap: round; stroke-linejoin: round; stroke-width: 2px; transform-origin: 225.255px 94.305px;" id="elnvxz31gq88a" class="animable"></path><path d="M187.51,121.34s8.15-13,26.06-21.75" style="fill: none; stroke: rgb(46, 53, 58); stroke-linecap: round; stroke-linejoin: round; stroke-width: 2px; transform-origin: 200.54px 110.465px;" id="elkxbmq44mq1m" class="animable"></path><path d="M189.65,265.26c3.71,12.12,8.62,28.91,10.32,38.29,2.88,15.82,1,24,7.2,25.41" style="fill: none; stroke: rgb(46, 53, 58); stroke-linecap: round; stroke-linejoin: round; stroke-width: 2px; transform-origin: 198.41px 297.11px;" id="el7p7m7tlmpr5" class="animable"></path><path d="M185.11,250.8s1,3.25,2.61,8.23" style="fill: none; stroke: rgb(46, 53, 58); stroke-linecap: round; stroke-linejoin: round; stroke-width: 2px; transform-origin: 186.415px 254.915px;" id="elah36drcn7cp" class="animable"></path><path d="M249.42,332.47v-95.6s4-25-9-25-12,13,3,27,38,1,41-10-5-16-10-7,0,111,0,111" style="fill: none; stroke: rgb(46, 53, 58); stroke-linecap: round; stroke-linejoin: round; stroke-width: 2px; transform-origin: 258.221px 272.37px;" id="elac13g6hv0h" class="animable"></path><rect x="202.08" y="332.86" width="107.91" height="25.04" style="fill: rgb(255, 255, 255); stroke: rgb(46, 53, 58); stroke-linecap: round; stroke-linejoin: round; stroke-width: 2px; transform-origin: 256.035px 345.38px;" id="elqv8z7auglt" class="animable"></rect><rect x="202.08" y="363.86" width="107.91" height="25.04" style="fill: rgb(255, 255, 255); stroke: rgb(46, 53, 58); stroke-linecap: round; stroke-linejoin: round; stroke-width: 2px; transform-origin: 256.035px 376.38px;" id="el9a7o7sbnevi" class="animable"></rect><rect x="202.08" y="357.9" width="107.91" height="5.96" style="fill: rgb(46, 53, 58); stroke: rgb(46, 53, 58); stroke-linecap: round; stroke-linejoin: round; transform-origin: 256.035px 360.88px;" id="elm2elk83ih7" class="animable"></rect><rect x="202.08" y="394.86" width="107.91" height="25.04" style="fill: rgb(255, 255, 255); stroke: rgb(46, 53, 58); stroke-linecap: round; stroke-linejoin: round; stroke-width: 2px; transform-origin: 256.035px 407.38px;" id="elz29nq2wcowd" class="animable"></rect><line x1="298.7" y1="354.55" x2="306.72" y2="354.55" style="fill: none; stroke: rgb(46, 53, 58); stroke-linecap: round; stroke-linejoin: round; transform-origin: 302.71px 354.55px;" id="el08tnkqkh3iq" class="animable"></line><line x1="206.32" y1="354.55" x2="294.84" y2="354.55" style="fill: none; stroke: rgb(46, 53, 58); stroke-linecap: round; stroke-linejoin: round; transform-origin: 250.58px 354.55px;" id="el45i745udkk4" class="animable"></line><line x1="277.9" y1="386.04" x2="303.75" y2="386.04" style="fill: none; stroke: rgb(46, 53, 58); stroke-linecap: round; stroke-linejoin: round; transform-origin: 290.825px 386.04px;" id="elzpfqjb7x4sr" class="animable"></line><line x1="222.34" y1="386.04" x2="274.93" y2="386.04" style="fill: none; stroke: rgb(46, 53, 58); stroke-linecap: round; stroke-linejoin: round; transform-origin: 248.635px 386.04px;" id="elgj1k3x0czec" class="animable"></line><line x1="213.73" y1="386.04" x2="218.18" y2="386.04" style="fill: none; stroke: rgb(46, 53, 58); stroke-linecap: round; stroke-linejoin: round; transform-origin: 215.955px 386.04px;" id="elz2tusv5cp" class="animable"></line><rect x="202.08" y="388.9" width="107.91" height="5.96" style="fill: rgb(46, 53, 58); stroke: rgb(46, 53, 58); stroke-linecap: round; stroke-linejoin: round; transform-origin: 256.035px 391.88px;" id="elq08hyos1ckj" class="animable"></rect><rect x="216.13" y="400.35" width="36.94" height="19.23" style="fill: rgb(76, 180, 248); stroke: rgb(46, 53, 58); stroke-linecap: round; stroke-linejoin: round; transform-origin: 234.6px 409.965px;" id="el5vhif0re89e" class="animable"></rect><rect x="264.2" y="400.35" width="36.94" height="19.23" style="fill: rgb(76, 180, 248); stroke: rgb(46, 53, 58); stroke-linecap: round; stroke-linejoin: round; transform-origin: 282.67px 409.965px;" id="el63e5u7o9rju" class="animable"></rect></g><g id="freepik--Ground--inject-3" class="animable" style="transform-origin: 250px 403.393px;"><path d="M334.37,419.9c-7.08-6.21-37.31-32.32-46.11-33-8.62-.69-39.22,25.72-47.5,33Z" style="fill: rgb(46, 53, 58); stroke: rgb(46, 53, 58); stroke-linecap: round; stroke-linejoin: round; transform-origin: 287.565px 403.393px;" id="eldzuk5z8vbq" class="animable"></path><line x1="451.08" y1="419.9" x2="459.76" y2="419.9" style="fill: rgb(255, 255, 255); stroke: rgb(46, 53, 58); stroke-linecap: round; stroke-linejoin: round; transform-origin: 455.42px 419.9px;" id="ell1zgc9uby9g" class="animable"></line><line x1="53.74" y1="419.9" x2="442.4" y2="419.9" style="fill: rgb(255, 255, 255); stroke: rgb(46, 53, 58); stroke-linecap: round; stroke-linejoin: round; transform-origin: 248.07px 419.9px;" id="elj1fnlw7mq6" class="animable"></line><line x1="40.24" y1="419.9" x2="46.99" y2="419.9" style="fill: rgb(255, 255, 255); stroke: rgb(46, 53, 58); stroke-linecap: round; stroke-linejoin: round; transform-origin: 43.615px 419.9px;" id="eliqm2f3ja9y8" class="animable"></line></g><g id="freepik--Trucks--inject-3" class="animable" style="transform-origin: 250.87px 265.44px;"><polygon points="433.61 362.83 407.66 362.83 407.66 399.23 418.41 399.23 433.61 399.23 444.37 399.23 444.37 381.03 433.61 362.83" style="fill: rgb(46, 53, 58); stroke: rgb(46, 53, 58); stroke-linecap: round; stroke-linejoin: round; transform-origin: 426.015px 381.03px;" id="elbupezukzk6c" class="animable"></polygon><rect x="432.48" y="399.23" width="11.89" height="8.27" style="fill: rgb(255, 255, 255); stroke: rgb(46, 53, 58); stroke-linecap: round; stroke-linejoin: round; transform-origin: 438.425px 403.365px;" id="elq12umwzy9i" class="animable"></rect><path d="M388.37,398.82s13-7,8.5-42l-16.5-9-28.5-4.5-25.5,1v14.5s14.5,12.5,16,16.5a27.72,27.72,0,0,1,1.5,8.5v14Z" style="fill: rgb(76, 180, 248); stroke: rgb(46, 53, 58); stroke-linecap: round; stroke-linejoin: round; transform-origin: 362.093px 371.07px;" id="el8orgxr571yw" class="animable"></path><line x1="396.87" y1="356.82" x2="388.37" y2="398.82" style="fill: none; stroke: rgb(46, 53, 58); stroke-linecap: round; stroke-linejoin: round; transform-origin: 392.62px 377.82px;" id="el2476w4slg3" class="animable"></line><line x1="380.37" y1="347.82" x2="370.87" y2="398.82" style="fill: none; stroke: rgb(46, 53, 58); stroke-linecap: round; stroke-linejoin: round; transform-origin: 375.62px 373.32px;" id="el9sizsjm9ls9" class="animable"></line><line x1="351.87" y1="343.32" x2="344.87" y2="381.32" style="fill: none; stroke: rgb(46, 53, 58); stroke-linecap: round; stroke-linejoin: round; transform-origin: 348.37px 362.32px;" id="el8chmiu2xh16" class="animable"></line><path d="M327.37,356.82s16.5,7,23,11.5,5.5,14,5.5,14" style="fill: none; stroke: rgb(46, 53, 58); stroke-linecap: round; stroke-linejoin: round; transform-origin: 341.648px 369.57px;" id="elluoew0dq3zi" class="animable"></path><rect x="330.36" y="399.49" width="77.53" height="6.5" style="fill: rgb(255, 255, 255); stroke: rgb(46, 53, 58); stroke-linecap: round; stroke-linejoin: round; transform-origin: 369.125px 402.74px;" id="elzjgn3jsjr9j" class="animable"></rect><polygon points="423.37 382.82 439.56 382.82 430.87 367.82 423.37 367.82 423.37 382.82" style="fill: rgb(255, 255, 255); stroke: rgb(46, 53, 58); stroke-linecap: round; stroke-linejoin: round; transform-origin: 431.465px 375.32px;" id="eldw9gnhgjken" class="animable"></polygon><rect x="413.87" y="367.82" width="7" height="15" style="fill: rgb(255, 255, 255); stroke: rgb(46, 53, 58); stroke-linecap: round; stroke-linejoin: round; transform-origin: 417.37px 375.32px;" id="elws2ju3zfgt8" class="animable"></rect><rect x="330.77" y="399.23" width="47.2" height="11.27" style="fill: rgb(255, 255, 255); stroke: rgb(46, 53, 58); stroke-linecap: round; stroke-linejoin: round; transform-origin: 354.37px 404.865px;" id="elxo8r1rb6sh" class="animable"></rect><g id="elw34xvgaejea"><circle cx="420.9" cy="409.98" r="9.93" style="fill: rgb(46, 53, 58); stroke: rgb(46, 53, 58); stroke-linecap: round; stroke-linejoin: round; transform-origin: 420.9px 409.98px; transform: rotate(-10.24deg);" class="animable"></circle></g><circle cx="420.9" cy="409.98" r="5.79" style="fill: rgb(255, 255, 255); stroke: rgb(46, 53, 58); stroke-linecap: round; stroke-linejoin: round; transform-origin: 420.9px 409.98px;" id="el25x03gynzcp" class="animable"></circle><g id="elxk2av6bcvpp"><circle cx="344.4" cy="409.98" r="9.93" style="fill: rgb(46, 53, 58); stroke: rgb(46, 53, 58); stroke-linecap: round; stroke-linejoin: round; transform-origin: 344.4px 409.98px; transform: rotate(-10.04deg);" class="animable"></circle></g><circle cx="344.4" cy="409.98" r="5.79" style="fill: rgb(255, 255, 255); stroke: rgb(46, 53, 58); stroke-linecap: round; stroke-linejoin: round; transform-origin: 344.4px 409.98px;" id="eliuzarl2kvep" class="animable"></circle><g id="elmp2kakvv8j"><circle cx="368.37" cy="409.98" r="9.93" style="fill: rgb(46, 53, 58); stroke: rgb(46, 53, 58); stroke-linecap: round; stroke-linejoin: round; transform-origin: 368.37px 409.98px; transform: rotate(-42.56deg);" class="animable"></circle></g><circle cx="368.37" cy="409.98" r="5.79" style="fill: rgb(255, 255, 255); stroke: rgb(46, 53, 58); stroke-linecap: round; stroke-linejoin: round; transform-origin: 368.37px 409.98px;" id="elv9m8jifbzdm" class="animable"></circle><rect x="336.87" y="381.82" width="31.5" height="17" rx="3.25" style="fill: rgb(46, 53, 58); stroke: rgb(46, 53, 58); stroke-linecap: round; stroke-linejoin: round; transform-origin: 352.62px 390.32px;" id="elhan4jdytmgk" class="animable"></rect><polyline points="324.37 398.82 324.37 349.37 334.37 349.37 334.37 398.82" style="fill: none; stroke: rgb(46, 53, 58); stroke-linecap: round; stroke-linejoin: round; transform-origin: 329.37px 374.095px;" id="el766bhzz5dpo" class="animable"></polyline><line x1="324.44" y1="355.92" x2="334.26" y2="355.92" style="fill: none; stroke: rgb(46, 53, 58); stroke-linecap: round; stroke-linejoin: round; transform-origin: 329.35px 355.92px;" id="elhi4fwrojl95" class="animable"></line><line x1="324.44" y1="363.64" x2="334.26" y2="363.64" style="fill: none; stroke: rgb(46, 53, 58); stroke-linecap: round; stroke-linejoin: round; transform-origin: 329.35px 363.64px;" id="elyn37g734be" class="animable"></line><line x1="324.44" y1="371.36" x2="334.26" y2="371.36" style="fill: none; stroke: rgb(46, 53, 58); stroke-linecap: round; stroke-linejoin: round; transform-origin: 329.35px 371.36px;" id="el5m8ud3susnu" class="animable"></line><line x1="324.44" y1="379.09" x2="334.26" y2="379.09" style="fill: none; stroke: rgb(46, 53, 58); stroke-linecap: round; stroke-linejoin: round; transform-origin: 329.35px 379.09px;" id="elqtq1ifzgt2b" class="animable"></line><line x1="324.44" y1="386.81" x2="334.26" y2="386.81" style="fill: none; stroke: rgb(46, 53, 58); stroke-linecap: round; stroke-linejoin: round; transform-origin: 329.35px 386.81px;" id="eladefknu9lek" class="animable"></line><line x1="324.44" y1="394.53" x2="334.26" y2="394.53" style="fill: none; stroke: rgb(46, 53, 58); stroke-linecap: round; stroke-linejoin: round; transform-origin: 329.35px 394.53px;" id="elvo53e7d2rhs" class="animable"></line><polygon points="124.36 420.87 106.36 420.87 106.36 106.87 124.36 127.8 124.36 420.87" style="fill: none; stroke: rgb(46, 53, 58); stroke-linecap: round; stroke-linejoin: round; transform-origin: 115.36px 263.87px;" id="elkhdnhqvdj7" class="animable"></polygon><polygon points="106.54 354.87 124.19 354.87 106.54 337.8 124.19 337.8 106.54 354.87" style="fill: none; stroke: rgb(46, 53, 58); stroke-linecap: round; stroke-linejoin: round; transform-origin: 115.365px 346.335px;" id="el332r1jf8yk4" class="animable"></polygon><polygon points="106.54 337.37 124.19 337.37 106.54 320.3 124.19 320.3 106.54 337.37" style="fill: none; stroke: rgb(46, 53, 58); stroke-linecap: round; stroke-linejoin: round; transform-origin: 115.365px 328.835px;" id="eltrje60totb" class="animable"></polygon><polygon points="106.54 319.87 124.19 319.87 106.54 302.8 124.19 302.8 106.54 319.87" style="fill: none; stroke: rgb(46, 53, 58); stroke-linecap: round; stroke-linejoin: round; transform-origin: 115.365px 311.335px;" id="eluajtwhqvkop" class="animable"></polygon><polygon points="106.54 302.37 124.19 302.37 106.54 285.3 124.19 285.3 106.54 302.37" style="fill: none; stroke: rgb(46, 53, 58); stroke-linecap: round; stroke-linejoin: round; transform-origin: 115.365px 293.835px;" id="el1mn04jmkhub" class="animable"></polygon><polygon points="106.54 284.87 124.19 284.87 106.54 267.8 124.19 267.8 106.54 284.87" style="fill: none; stroke: rgb(46, 53, 58); stroke-linecap: round; stroke-linejoin: round; transform-origin: 115.365px 276.335px;" id="el1k68h8bvkj5i" class="animable"></polygon><polygon points="106.54 267.37 124.19 267.37 106.54 250.3 124.19 250.3 106.54 267.37" style="fill: none; stroke: rgb(46, 53, 58); stroke-linecap: round; stroke-linejoin: round; transform-origin: 115.365px 258.835px;" id="el8gcoq7cgx5d" class="animable"></polygon><polygon points="106.54 249.87 124.19 249.87 106.54 232.8 124.19 232.8 106.54 249.87" style="fill: none; stroke: rgb(46, 53, 58); stroke-linecap: round; stroke-linejoin: round; transform-origin: 115.365px 241.335px;" id="el4czipb8gg12" class="animable"></polygon><polygon points="106.54 232.37 124.19 232.37 106.54 215.3 124.19 215.3 106.54 232.37" style="fill: none; stroke: rgb(46, 53, 58); stroke-linecap: round; stroke-linejoin: round; transform-origin: 115.365px 223.835px;" id="elwtvfxp4el2" class="animable"></polygon><polygon points="106.54 214.87 124.19 214.87 106.54 197.8 124.19 197.8 106.54 214.87" style="fill: none; stroke: rgb(46, 53, 58); stroke-linecap: round; stroke-linejoin: round; transform-origin: 115.365px 206.335px;" id="elk8e80dxld8" class="animable"></polygon><polygon points="106.54 197.37 124.19 197.37 106.54 180.3 124.19 180.3 106.54 197.37" style="fill: none; stroke: rgb(46, 53, 58); stroke-linecap: round; stroke-linejoin: round; transform-origin: 115.365px 188.835px;" id="el7sixillo08m" class="animable"></polygon><polygon points="106.54 179.87 124.19 179.87 106.54 162.8 124.19 162.8 106.54 179.87" style="fill: none; stroke: rgb(46, 53, 58); stroke-linecap: round; stroke-linejoin: round; transform-origin: 115.365px 171.335px;" id="elgypatxya2bh" class="animable"></polygon><polygon points="106.54 162.37 124.19 162.37 106.54 145.3 124.19 145.3 106.54 162.37" style="fill: none; stroke: rgb(46, 53, 58); stroke-linecap: round; stroke-linejoin: round; transform-origin: 115.365px 153.835px;" id="elu2khqqfdi6" class="animable"></polygon><polygon points="106.54 144.87 124.19 144.87 106.54 127.8 124.19 127.8 106.54 144.87" style="fill: none; stroke: rgb(46, 53, 58); stroke-linecap: round; stroke-linejoin: round; transform-origin: 115.365px 136.335px;" id="eltulh29isjx" class="animable"></polygon><polygon points="207.93 145.34 199.21 139.85 136.98 139.85 129.38 145.34 207.93 145.34" style="fill: none; stroke: rgb(46, 53, 58); stroke-linecap: round; stroke-linejoin: round; transform-origin: 168.655px 142.595px;" id="el8lig9qtvxwy" class="animable"></polygon><rect x="57.37" y="144.87" width="152" height="4" style="fill: rgb(46, 53, 58); stroke: rgb(46, 53, 58); stroke-linecap: round; stroke-linejoin: round; transform-origin: 133.37px 146.87px;" id="elnspgbmzogc" class="animable"></rect><polyline points="199.21 139.85 106.36 106.87 136.98 139.85" style="fill: none; stroke: rgb(46, 53, 58); stroke-linecap: round; stroke-linejoin: round; transform-origin: 152.785px 123.36px;" id="elubpmfsy6rh" class="animable"></polyline><line x1="106.37" y1="106.87" x2="57.37" y2="144.87" style="fill: none; stroke: rgb(46, 53, 58); stroke-linecap: round; stroke-linejoin: round; transform-origin: 81.87px 125.87px;" id="el47yyeyv5txx" class="animable"></line><rect x="99.87" y="153.37" width="37.5" height="24" style="fill: rgb(46, 53, 58); stroke: rgb(46, 53, 58); stroke-linecap: round; stroke-linejoin: round; transform-origin: 118.62px 165.37px;" id="elyd02t5993zl" class="animable"></rect><rect x="107.68" y="158.37" width="21.87" height="7" style="fill: rgb(255, 255, 255); stroke: rgb(46, 53, 58); stroke-linecap: round; stroke-linejoin: round; transform-origin: 118.615px 161.87px;" id="el1k6uplienc5h" class="animable"></rect><line x1="209.37" y1="148.87" x2="209.37" y2="191.99" style="fill: rgb(255, 255, 255); stroke: rgb(46, 53, 58); stroke-linecap: round; stroke-linejoin: round; transform-origin: 209.37px 170.43px;" id="el06oudle1wo8y" class="animable"></line><rect x="203.96" y="206.72" width="11.11" height="12.59" style="fill: rgb(46, 53, 58); stroke: rgb(46, 53, 58); stroke-linecap: round; stroke-linejoin: round; transform-origin: 209.515px 213.015px;" id="ely7uvu3u7frd" class="animable"></rect><polyline points="203.96 206.72 209.52 191.17 215.08 206.72" style="fill: none; stroke: rgb(46, 53, 58); stroke-linecap: round; stroke-linejoin: round; transform-origin: 209.52px 198.945px;" id="elonw44oiavvp" class="animable"></polyline><path d="M179.4,358.65l24,37.94,6-4.39-17.66-35.32a9.55,9.55,0,0,0-8.55-5.28h0A4.59,4.59,0,0,0,179.4,358.65Z" style="fill: rgb(76, 180, 248); stroke: rgb(46, 53, 58); stroke-linecap: round; stroke-linejoin: round; transform-origin: 194.042px 374.095px;" id="el7t36k4hms42" class="animable"></path><path d="M207.29,387.26,182.6,404.82s2.2,9.32,16.46,8.77,13.72-15.36,13.72-15.36Z" style="fill: rgb(46, 53, 58); stroke: rgb(255, 255, 255); stroke-linecap: round; stroke-linejoin: round; transform-origin: 197.691px 400.437px;" id="el1km0d3vxhfu" class="animable"></path><path d="M138.71,375.74l44.72-20.15a7.08,7.08,0,0,1,8.6,2.25h0a7.07,7.07,0,0,1-1.64,10l-48.93,34.25Z" style="fill: rgb(76, 180, 248); stroke: rgb(46, 53, 58); stroke-linecap: round; stroke-linejoin: round; transform-origin: 166.062px 378.528px;" id="elcspgoi52qr" class="animable"></path><rect x="86.04" y="400.43" width="46.09" height="7.13" style="fill: rgb(255, 255, 255); stroke: rgb(46, 53, 58); stroke-linecap: round; stroke-linejoin: round; transform-origin: 109.085px 403.995px;" id="elelo2106b9f" class="animable"></rect><rect x="69.58" y="380.13" width="40.05" height="16.46" style="fill: rgb(46, 53, 58); stroke: rgb(46, 53, 58); stroke-linecap: round; stroke-linejoin: round; transform-origin: 89.605px 388.36px;" id="elrw23uu4bo7q" class="animable"></rect><path d="M104.42,361.47h34a3,3,0,0,1,3,3v32.1a0,0,0,0,1,0,0H101.41a0,0,0,0,1,0,0v-32.1A3,3,0,0,1,104.42,361.47Z" style="fill: rgb(76, 180, 248); stroke: rgb(46, 53, 58); stroke-linecap: round; stroke-linejoin: round; transform-origin: 121.415px 379.02px;" id="elqo1vcuy44to" class="animable"></path><path d="M69.17,419.9h65.57a7.81,7.81,0,0,0,7.81-7.81h0a7.82,7.82,0,0,0-7.81-7.82H69.17a7.82,7.82,0,0,0-7.81,7.82h0A7.81,7.81,0,0,0,69.17,419.9Z" style="fill: rgb(46, 53, 58); stroke: rgb(46, 53, 58); stroke-linecap: round; stroke-linejoin: round; transform-origin: 101.955px 412.085px;" id="el9cvxvrtogbu" class="animable"></path><path d="M79.05,419.9h65.56a7.82,7.82,0,0,0,7.82-7.81h0a7.82,7.82,0,0,0-7.82-7.82H79.05a7.82,7.82,0,0,0-7.82,7.82h0A7.82,7.82,0,0,0,79.05,419.9Z" style="fill: rgb(255, 255, 255); stroke: rgb(46, 53, 58); stroke-linecap: round; stroke-linejoin: round; transform-origin: 111.83px 412.085px;" id="elmlgwqvcfbt" class="animable"></path><rect x="69.58" y="396.59" width="71.87" height="5.49" style="fill: rgb(255, 255, 255); stroke: rgb(46, 53, 58); stroke-linecap: round; stroke-linejoin: round; transform-origin: 105.515px 399.335px;" id="el6gvzkuse2cs" class="animable"></rect><path d="M84.4,412.09a4.94,4.94,0,1,1-4.94-4.94A4.94,4.94,0,0,1,84.4,412.09Z" style="fill: rgb(46, 53, 58); stroke: rgb(46, 53, 58); stroke-linecap: round; stroke-linejoin: round; transform-origin: 79.46px 412.09px;" id="eln6j8hufqln" class="animable"></path><circle cx="92.63" cy="412.09" r="4.94" style="fill: rgb(46, 53, 58); stroke: rgb(46, 53, 58); stroke-linecap: round; stroke-linejoin: round; transform-origin: 92.63px 412.09px;" id="elqnxkej4c2v" class="animable"></circle><circle cx="105.79" cy="412.09" r="4.94" style="fill: rgb(46, 53, 58); stroke: rgb(46, 53, 58); stroke-linecap: round; stroke-linejoin: round; transform-origin: 105.79px 412.09px;" id="ell6x4w7ukx5p" class="animable"></circle><path d="M123.9,412.09a4.94,4.94,0,1,1-4.94-4.94A4.94,4.94,0,0,1,123.9,412.09Z" style="fill: rgb(46, 53, 58); stroke: rgb(46, 53, 58); stroke-linecap: round; stroke-linejoin: round; transform-origin: 118.96px 412.09px;" id="el1qkmhu2fx7p" class="animable"></path><path d="M137.07,412.09a4.94,4.94,0,1,1-4.94-4.94A4.94,4.94,0,0,1,137.07,412.09Z" style="fill: rgb(46, 53, 58); stroke: rgb(46, 53, 58); stroke-linecap: round; stroke-linejoin: round; transform-origin: 132.13px 412.09px;" id="elb567z0oej2d" class="animable"></path><path d="M150.23,412.09a4.94,4.94,0,1,1-4.93-4.94A4.93,4.93,0,0,1,150.23,412.09Z" style="fill: rgb(46, 53, 58); stroke: rgb(46, 53, 58); stroke-linecap: round; stroke-linejoin: round; transform-origin: 145.29px 412.09px;" id="elfcnpvfsk8iw" class="animable"></path><path d="M188.64,361.47a2.75,2.75,0,1,0-2.74,2.75A2.74,2.74,0,0,0,188.64,361.47Z" style="fill: rgb(46, 53, 58); stroke: rgb(46, 53, 58); stroke-linecap: round; stroke-linejoin: round; transform-origin: 185.89px 361.47px;" id="ellwskjp8h8wa" class="animable"></path><rect x="106.34" y="365.86" width="29.08" height="17.56" style="fill: rgb(255, 255, 255); stroke: rgb(46, 53, 58); stroke-linecap: round; stroke-linejoin: round; transform-origin: 120.88px 374.64px;" id="elbdyvlcbwlyj" class="animable"></rect><rect x="119.51" y="365.86" width="15.91" height="17.56" style="fill: rgb(255, 255, 255); stroke: rgb(46, 53, 58); stroke-linecap: round; stroke-linejoin: round; transform-origin: 127.465px 374.64px;" id="ela7smbhnu5rk" class="animable"></rect></g><defs>     <filter id="active" height="200%">         <feMorphology in="SourceAlpha" result="DILATED" operator="dilate" radius="2"></feMorphology>                <feFlood flood-color="#32DFEC" flood-opacity="1" result="PINK"></feFlood>        <feComposite in="PINK" in2="DILATED" operator="in" result="OUTLINE"></feComposite>        <feMerge>            <feMergeNode in="OUTLINE"></feMergeNode>            <feMergeNode in="SourceGraphic"></feMergeNode>        </feMerge>    </filter>    <filter id="hover" height="200%">        <feMorphology in="SourceAlpha" result="DILATED" operator="dilate" radius="2"></feMorphology>                <feFlood flood-color="#ff0000" flood-opacity="0.5" result="PINK"></feFlood>        <feComposite in="PINK" in2="DILATED" operator="in" result="OUTLINE"></feComposite>        <feMerge>            <feMergeNode in="OUTLINE"></feMergeNode>            <feMergeNode in="SourceGraphic"></feMergeNode>        </feMerge>            <feColorMatrix type="matrix" values="0   0   0   0   0                0   1   0   0   0                0   0   0   0   0                0   0   0   1   0 "></feColorMatrix>    </filter></defs></svg>